HIERARCHY
ROOT Pelvis
{
	OFFSET 0.000000 0.000000 0.000000
	CHANNELS 6 Xposition Yposition Zposition Xrotation Yrotation Zrotation
	JOINT LeftUpLeg_virtual
	{
		OFFSET 0.000000 0.000000 0.000000
		CHANNELS 3 Xrotation Yrotation Zrotation
		JOINT LeftUpLeg
		{
			OFFSET 8.479700 -4.795502 -0.379100
			CHANNELS 3 Xrotation Yrotation Zrotation
			JOINT LeftLeg
			{
				OFFSET 0.024144 -32.555107 0.112900
				CHANNELS 3 Xrotation Yrotation Zrotation
				JOINT LeftFoot
				{
					OFFSET -0.024144 -32.638630 -3.012600
					CHANNELS 3 Xrotation Yrotation Zrotation
					JOINT LeftToeBase
					{
						OFFSET 0.970200 -13.225400 11.864200
						CHANNELS 3 Xrotation Yrotation Zrotation
						End Site
						{
							OFFSET 0 0 0
						}
					}
				}
			}
		}
	}
	JOINT RightUpLeg_virtual
	{
		OFFSET 0.000000 0.000000 0.000000
		CHANNELS 3 Xrotation Yrotation Zrotation
		JOINT RightUpLeg
		{
			OFFSET -8.479700 -4.795502 -0.379100
			CHANNELS 3 Xrotation Yrotation Zrotation
			JOINT RightLeg
			{
				OFFSET -0.023144 -32.555092 0.112900
				CHANNELS 3 Xrotation Yrotation Zrotation
				JOINT RightFoot
				{
					OFFSET 0.023144 -32.638641 -3.012700
					CHANNELS 3 Xrotation Yrotation Zrotation
					JOINT RightToeBase
					{
						OFFSET -0.970200 -13.225400 11.864200
						CHANNELS 3 Xrotation Yrotation Zrotation
						End Site
						{
							OFFSET 0 0 0
						}
					}
				}
			}
		}
	}
	JOINT Hips_virtual
	{
		OFFSET 0.000000 0.000000 0.000000
		CHANNELS 3 Xrotation Yrotation Zrotation
		JOINT Hips
		{
			OFFSET -0.000000 -0.000000 -0.000000
			CHANNELS 3 Xrotation Yrotation Zrotation
			JOINT Spine
			{
				OFFSET 0.000000 7.722000 1.166200
				CHANNELS 3 Xrotation Yrotation Zrotation
				JOINT Spine1
				{
					OFFSET 0.000000 12.024101 0.248800
					CHANNELS 3 Xrotation Yrotation Zrotation
					JOINT Spine2
					{
						OFFSET 0.000000 11.502998 -0.491200
						CHANNELS 3 Xrotation Yrotation Zrotation
						JOINT Neck_virtual
						{
							OFFSET 0.000000 0.000000 0.000000
							CHANNELS 3 Xrotation Yrotation Zrotation
							JOINT Neck
							{
								OFFSET 0.000000 18.430702 -3.123100
								CHANNELS 3 Xrotation Yrotation Zrotation
								JOINT Head
								{
									OFFSET 0.000000 9.051102 1.034000
									CHANNELS 3 Xrotation Yrotation Zrotation
									End Site
									{
										OFFSET 0 0 0
									}
								}
							}
						}
						JOINT LeftShoulder_virtual
						{
							OFFSET 0.000000 0.000000 0.000000
							CHANNELS 3 Xrotation Yrotation Zrotation
							JOINT LeftShoulder
							{
								OFFSET 6.197800 13.665199 -4.064700
								CHANNELS 3 Xrotation Yrotation Zrotation
								JOINT LeftArm
								{
									OFFSET 7.778100 -0.187103 -1.709300
									CHANNELS 3 Xrotation Yrotation Zrotation
									JOINT LeftForeArm
									{
										OFFSET 22.049376 0.000000 0.000000
										CHANNELS 3 Xrotation Yrotation Zrotation
										JOINT LeftHand
										{
											OFFSET 23.009392 0.000000 0.000000
											CHANNELS 3 Xrotation Yrotation Zrotation
											End Site
											{
												OFFSET 0 0 0
											}
										}
									}
								}
							}
						}
						JOINT RightShoulder_virtual
						{
							OFFSET 0.000000 0.000000 0.000000
							CHANNELS 3 Xrotation Yrotation Zrotation
							JOINT RightShoulder
							{
								OFFSET -6.197800 13.665199 -4.064700
								CHANNELS 3 Xrotation Yrotation Zrotation
								JOINT RightArm
								{
									OFFSET -7.778100 -0.187103 -1.709300
									CHANNELS 3 Xrotation Yrotation Zrotation
									JOINT RightForeArm
									{
										OFFSET -22.049376 0.000000 0.000000
										CHANNELS 3 Xrotation Yrotation Zrotation
										JOINT RightHand
										{
											OFFSET -23.009392 0.000000 0.000000
											CHANNELS 3 Xrotation Yrotation Zrotation
											End Site
											{
												OFFSET 0 0 0
											}
										}
									}
								}
							}
						}
					}
				}
			}
		}
	}
}
MOTION
Frames: 4
Frame Time: 0.03333333
0.087392 75.137901 -0.099003 0.000000 0.000000 0.000000 -1.735339 -17.054053 -1.910117 -37.138051 17.622359 14.940001 49.864288 0.504447 8.294481 -13.712621 1.147885 -7.898501 0.000000 0.000000 0.000000 -1.735339 -17.054053 -1.910117 -31.862860 -22.685246 -14.578077 48.548059 -2.551374 -10.164208 -17.116101 -2.213729 11.929758 0.000000 0.000000 0.000000 -1.735339 -17.054053 -1.910117 0.000000 0.000000 0.000000 3.883742 2.398638 -0.399838 2.929113 2.056186 -0.138334 0.000000 0.000000 0.000000 2.894090 2.112998 -0.161224 1.137080 0.245401 5.249917 0.000000 0.000000 0.000000 2.894090 2.112998 -0.161224 1.375475 -4.867615 21.431199 -66.234284 -43.614866 -65.822041 0.000000 -37.698369 0.000008 0.000000 0.000000 0.000000 2.894090 2.112998 -0.161224 0.445409 -0.777910 -3.588725 -96.770708 65.301130 91.341780 -0.000000 28.227454 0.000004 0.000000 0.000000 0.000000 
0.092757 75.146156 -0.103617 0.000000 0.000000 0.000000 -1.679637 -17.014694 -1.930697 -37.222332 17.673459 14.921757 49.838593 0.455984 8.419928 -13.686216 1.151175 -7.918442 0.000000 0.000000 0.000000 -1.679637 -17.014694 -1.930697 -31.792147 -22.508977 -14.410183 48.453485 -2.794564 -10.163389 -17.062801 -2.230869 12.036136 0.000000 0.000000 0.000000 -1.679637 -17.014694 -1.930697 0.000000 0.000001 0.000000 3.848152 2.379543 -0.413054 2.899331 2.043581 -0.147449 0.000000 0.000000 0.000000 2.864487 2.099785 -0.170384 1.085837 0.256949 5.236186 0.000000 0.000000 0.000000 2.864487 2.099785 -0.170384 1.287690 -4.591927 21.372333 -66.225938 -43.832783 -66.089580 -0.000002 -37.650103 -0.000008 0.000000 0.000000 0.000000 2.864487 2.099785 -0.170384 0.432491 -0.830613 -3.627957 -97.091774 65.466175 91.848429 0.000002 28.156147 0.000002 0.000000 0.000000 0.000000 
0.097895 75.153839 -0.111748 0.000000 0.000000 0.000000 -1.626069 -16.971354 -1.946286 -37.303201 17.724764 14.890212 49.808007 0.411025 8.554532 -13.653727 1.155853 -7.943151 0.000000 0.000000 0.000000 -1.626069 -16.971354 -1.946286 -31.726225 -22.325873 -14.246042 48.363173 -3.055569 -10.162308 -17.008510 -2.246857 12.145277 0.000000 0.000000 0.000000 -1.626069 -16.971354 -1.946286 0.000000 0.000000 0.000000 3.801738 2.351500 -0.432861 2.860569 2.025401 -0.161203 0.000000 0.000000 0.000000 2.825894 2.080955 -0.184224 1.012363 0.275948 5.218361 0.000000 0.000000 0.000000 2.825894 2.080955 -0.184224 1.196433 -4.307699 21.316486 -66.220303 -44.104710 -66.348758 -0.000003 -37.562352 0.000001 0.000000 0.000000 0.000000 2.825894 2.080955 -0.184224 0.420648 -0.879266 -3.679279 -97.395670 65.635359 92.333393 -0.000001 28.079237 0.000004 0.000000 0.000000 0.000000 
0.102666 75.161667 -0.121246 0.000000 0.000000 0.000000 -1.577819 -16.923583 -1.963680 -37.379057 17.771457 14.860021 49.777217 0.361840 8.682639 -13.619430 1.161250 -7.964083 0.000000 0.000000 0.000000 -1.577819 -16.923583 -1.963680 -31.655523 -22.143726 -14.081594 48.272270 -3.322857 -10.161050 -16.953165 -2.264239 12.254586 0.000000 0.000000 0.000000 -1.577819 -16.923583 -1.963680 0.000000 0.000001 0.000000 3.753244 2.324761 -0.447937 2.820241 2.007302 -0.173256 0.000000 0.000000 0.000000 2.785800 2.062072 -0.196306 0.943601 0.291476 5.199657 0.000000 0.000000 0.000000 2.785800 2.062072 -0.196306 1.103779 -4.021742 21.257212 -66.219183 -44.417004 -66.594700 -0.000011 -37.422265 -0.000009 0.000000 0.000000 0.000000 2.785800 2.062072 -0.196306 0.410449 -0.920573 -3.746361 -97.673624 65.806571 92.793372 -0.000006 28.006419 0.000012 0.000000 0.000000 0.000000 
